HIERARCHY
ROOT hip
{
	OFFSET 0.000000 0.000000 0.000000 
	CHANNELS 6 Xposition Yposition Zposition Xrotation Zrotation Yrotation
	JOINT abdomen
	{
		OFFSET 0.000000 3.402643 0.000000 
		CHANNELS 3 Xrotation Zrotation Yrotation
		JOINT chest
		{
			OFFSET 0.000000 8.438565 -0.680529 
			CHANNELS 3 Xrotation Zrotation Yrotation
			JOINT neck
			{
				OFFSET 0.000000 10.207942 -0.272212 
				CHANNELS 3 Xrotation Zrotation Yrotation
				JOINT head
				{
					OFFSET 0.000000 3.130431 0.000000 
					CHANNELS 3 Xrotation Zrotation Yrotation
					End Site
					{
						OFFSET 0.000000 3.130435 0.000000 
					}
				}
			}
			JOINT lCollar
			{
				OFFSET 3.470700 6.669187 -0.816635 
				CHANNELS 3 Yrotation Zrotation Xrotation
				JOINT lShldr
				{
					OFFSET 3.198488 0.000000 0.000000 
					CHANNELS 3 Zrotation Yrotation Xrotation
					JOINT lForeArm
					{
						OFFSET 10.139888 0.000000 0.000000 
						CHANNELS 3 Yrotation Zrotation Xrotation
						JOINT lHand
						{
							OFFSET 8.370511 0.000000 0.000000 
							CHANNELS 3 Zrotation Yrotation Xrotation
							End Site
							{
								OFFSET 4.083176 0.000000 0.000000 
							}
						}
					}
				}
			}
			JOINT rCollar
			{
				OFFSET -3.470700 6.669187 -0.816635 
				CHANNELS 3 Yrotation Zrotation Xrotation
				JOINT rShldr
				{
					OFFSET -3.198488 0.000000 0.000000 
					CHANNELS 3 Zrotation Yrotation Xrotation
					JOINT rForeArm
					{
						OFFSET -10.139888 0.000000 0.000000 
						CHANNELS 3 Yrotation Zrotation Xrotation
						JOINT rHand
						{
							OFFSET -8.370511 0.000000 0.000000 
							CHANNELS 3 Zrotation Yrotation Xrotation
							End Site
							{
								OFFSET -4.083176 0.000000 0.000000 
							}
						}
					}
				}
			}
		}
	}
	JOINT lThigh
	{
		OFFSET 5.308129 -1.633274 1.361059 
		CHANNELS 3 Xrotation Zrotation Yrotation
		JOINT lShin
		{
			OFFSET -2.041588 -20.007561 0.000000 
			CHANNELS 3 Xrotation Zrotation Yrotation
			JOINT lFoot
			{
				OFFSET 0.000000 -19.190928 -1.224953 
				CHANNELS 3 Xrotation Yrotation Zrotation
				End Site
				{
					OFFSET 0.000000 -2.449906 4.627600 
				}
			}
		}
	}
	JOINT rThigh
	{
		OFFSET -5.308129 -1.633274 1.361059 
		CHANNELS 3 Xrotation Zrotation Yrotation
		JOINT rShin
		{
			OFFSET 2.041588 -20.007561 0.000000 
			CHANNELS 3 Xrotation Zrotation Yrotation
			JOINT rFoot
			{
				OFFSET 0.000000 -19.190928 -1.224953 
				CHANNELS 3 Xrotation Yrotation Zrotation
				End Site
				{
					OFFSET 0.000000 -2.449906 4.627600 
				}
			}
		}
	}
}
MOTION
Frames: 15
Frame Time: 0.016667
-2.470520 50.050747 -18.441982 -13.257701 7.911098 39.610756 37.768345 5.546472 5.098733 3.479231 2.656157 0.762562 3.545155 -0.290242 -0.025273 15.091890 5.162059 -46.237694 -2.693918 0.114957 -0.001522 -31.658855 -25.301189 -1.400612 -73.315903 -2.714422 0.368765 -25.841749 -5.248129 33.106441 5.974203 -4.601705 0.230991 48.563522 23.390640 6.358045 77.558563 -5.000000 -8.264056 2.454624 -2.239967 -16.126369 -12.982689 17.776640 -1.372571 16.124138 -8.522658 -2.977520 11.893235 -15.397091 -16.772673 19.615641 -2.832432 -20.616184 31.039360 -0.537571 -0.518462 -28.822281 -14.097850 5.674358 
-2.511474 50.172863 -18.402649 -13.060473 7.705812 37.872513 37.544758 4.881795 4.811232 3.422538 2.665907 0.811349 3.740239 -0.040084 -0.003819 15.379822 5.011399 -44.767540 -2.039629 0.036824 -0.005546 -32.023525 -23.383850 -1.494928 -73.890121 -2.107701 0.181738 -25.225294 -6.213202 32.533337 5.706736 -3.519127 0.174974 49.417782 22.401947 6.651299 81.743172 -5.000000 -5.210225 2.084771 -0.861824 -13.933453 -12.467143 17.983940 -1.042432 15.558864 -8.226077 -2.810122 12.394021 -14.577888 -17.458887 19.331306 -3.203511 -18.994671 30.354856 -0.527265 -0.501473 -28.602585 -13.994740 5.438644 
-2.558937 50.238388 -18.462013 -13.036756 7.323210 36.063465 37.517189 4.594976 4.780733 3.410512 2.685361 1.026481 3.779316 -0.080168 -0.007638 15.525503 4.861428 -43.338566 -1.570895 -0.051029 -0.010070 -31.938087 -22.549856 -1.640895 -73.209343 -1.816259 0.099777 -24.859974 -6.862074 31.739933 5.715790 -3.079289 0.161951 49.402802 22.421804 6.867594 82.998833 -5.000000 -4.270905 2.524238 -0.521066 -13.461542 -12.331823 18.337271 -0.514584 15.719305 -7.866670 -2.697062 12.652798 -13.954172 -17.760517 18.813000 -3.701544 -17.439373 30.197285 -0.209498 -0.301020 -28.476185 -13.588798 5.231089 
-2.610737 50.266190 -18.587152 -13.114770 6.816291 34.191799 37.621155 4.539412 4.927503 3.431891 2.724267 1.368482 3.721003 -0.320671 -0.030551 15.577493 4.709038 -41.930614 -1.248654 -0.148610 -0.015096 -31.533842 -22.437656 -1.820410 -71.686440 -1.749952 0.082754 -24.657358 -7.301115 30.807714 5.901337 -3.079289 0.161951 48.826920 23.096365 7.045958 82.436325 -5.000000 -4.534947 3.451772 -0.874273 -14.144919 -12.407611 18.762949 0.078554 16.348291 -7.477123 -2.610198 12.741315 -13.396733 -17.743502 18.137737 -4.228147 -15.930764 30.287210 0.236473 0.009203 -28.366116 -12.954370 5.041777 
-2.663920 50.277794 -18.715055 -13.214871 6.324338 32.546700 37.738983 4.555368 5.075665 3.460527 2.763177 1.622658 3.613982 -0.519629 -0.039987 15.567692 4.575634 -40.693283 -1.004537 -0.216920 -0.018614 -31.051079 -22.565933 -2.008026 -70.026306 -1.739753 0.082358 -24.550035 -7.555745 30.047194 6.067037 -3.158342 0.156295 48.175507 24.006870 7.255163 81.297729 -5.000000 -5.161855 4.216998 -1.211033 -14.825578 -12.546407 19.234520 0.614866 17.000204 -7.180809 -2.570804 12.805256 -12.935205 -17.675306 17.504475 -4.647907 -14.679840 30.449547 0.675889 0.321830 -28.304565 -12.354267 4.844355 
-2.722643 50.224632 -18.853987 -13.469526 5.882376 31.827974 38.009552 4.846065 5.231400 3.568690 2.802233 1.612896 3.360095 -0.548596 -0.035609 15.351893 4.555090 -40.112484 -1.131483 -0.197393 -0.017609 -30.153172 -23.704908 -2.291006 -67.845741 -1.946449 0.170491 -24.851101 -7.069530 29.974545 6.224463 -3.567977 0.177508 47.275177 25.836617 7.587099 77.865303 -5.000000 -7.314624 4.340165 -1.582848 -15.577985 -12.801828 19.764036 0.779847 17.623114 -7.209479 -2.677498 12.602071 -12.525614 -17.348284 17.070995 -4.774897 -14.439902 30.874889 1.042415 0.562179 -28.421921 -11.557651 4.756155 
-2.781368 50.171459 -18.992926 -13.717131 5.440496 31.113274 38.280972 5.122944 5.390457 3.666785 2.851061 1.593381 3.106302 -0.579024 -0.040886 15.129042 4.540603 -39.532410 -1.248664 -0.177868 -0.016603 -29.239815 -24.845953 -2.596440 -65.664352 -2.146270 0.274239 -25.156681 -6.596670 29.892487 6.372276 -3.977610 0.198712 46.371933 27.669895 7.898732 74.407875 -5.000000 -9.530887 4.471514 -1.940757 -16.349697 -13.052578 20.306334 0.960282 18.244234 -7.234126 -2.813219 12.391192 -12.176308 -17.036209 16.658710 -4.863079 -14.219394 31.307722 1.369504 0.805247 -28.547482 -10.801518 4.662423 
-2.815462 50.113026 -19.075840 -13.891694 5.259241 31.053787 38.453377 5.305217 5.355128 3.741700 2.890188 1.486062 2.881472 -0.518168 -0.030331 14.989413 4.629280 -39.450447 -1.492798 -0.158321 -0.015598 -28.697275 -26.139923 -2.716335 -63.957073 -2.016491 0.229001 -25.312231 -6.251930 30.532166 6.655956 -4.114193 0.205782 45.502075 28.874113 7.945423 71.418526 -5.000000 -11.580194 4.509184 -1.747529 -16.769426 -13.053188 20.668077 1.158155 18.284508 -7.482121 -2.871823 12.073636 -12.161175 -16.813082 16.415051 -4.844336 -14.210560 31.789814 1.508964 0.887658 -28.736887 -10.566658 4.649315 
-2.843399 50.053272 -19.144754 -14.029721 5.152499 31.165873 38.600605 5.455189 5.269689 3.814660 2.939107 1.329472 2.666511 -0.449117 -0.030891 14.867019 4.747267 -39.497265 -1.775993 -0.129015 -0.014089 -28.230066 -27.467941 -2.808734 -62.368294 -1.821010 0.139560 -25.440855 -5.942120 31.374437 6.978432 -4.172763 0.208816 44.637035 29.921461 7.911134 68.514153 -5.000000 -13.660593 4.524979 -1.400138 -17.129053 -12.985042 20.951736 1.387804 18.181139 -7.734125 -2.963967 11.800199 -12.234747 -16.626392 16.183687 -4.774237 -14.339895 32.293419 1.554783 0.995563 -28.917181 -10.532992 4.655664 
-2.855486 49.999363 -19.196787 -14.100710 5.085503 31.476660 38.702793 5.622993 5.213164 3.868265 2.978245 1.183136 2.412434 -0.378605 -0.021795 14.710619 4.848706 -39.671280 -2.010357 -0.089965 -0.012078 -28.129135 -28.790264 -2.718736 -61.212784 -1.382655 -0.097019 -25.491899 -5.680179 32.138977 7.115011 -4.133776 0.206800 43.774414 30.806124 7.836893 66.072723 -5.000000 -15.489054 4.775810 -1.266922 -17.463724 -13.056253 21.131769 1.558479 18.144835 -7.920630 -3.035812 11.567731 -12.509174 -16.496941 16.019665 -4.609219 -14.506882 32.688622 1.501122 0.944698 -29.161486 -10.691018 4.648763 
-2.843808 49.954235 -19.223494 -14.094398 5.068419 32.093746 38.712296 5.789973 5.203880 3.901967 2.997846 1.036290 2.090033 -0.308093 -0.012698 14.464671 4.949739 -40.051746 -2.156826 -0.021671 -0.008560 -28.591452 -30.105364 -2.356122 -60.683411 -0.592172 -0.544250 -25.424217 -5.503836 32.806660 6.958081 -3.938698 0.196704 42.956413 31.426435 7.727160 64.351822 -5.000000 -16.884335 5.397251 -1.434743 -17.789013 -13.260411 21.120932 1.662929 18.209867 -8.016899 -3.094479 11.274574 -12.842186 -16.362978 15.889950 -4.354913 -14.763918 32.982548 1.325539 0.805496 -29.318266 -11.051590 4.724970 
-2.832133 49.909115 -19.250196 -14.079195 5.051077 32.701946 38.722542 5.965759 5.199444 3.935593 3.017436 0.889956 1.777472 -0.239042 -0.013258 14.234197 5.042459 -40.422626 -2.313073 0.046230 0.004716 -29.056847 -31.405569 -1.981968 -60.157909 0.181630 -1.001130 -25.357874 -5.321483 33.492531 6.801820 -3.742465 0.196282 42.123653 32.043251 7.604984 62.620880 -5.000000 -18.312498 6.010990 -1.599774 -18.109428 -13.495855 21.102812 1.745119 18.258549 -8.127877 -3.125270 11.099373 -13.192880 -16.176785 15.793393 -4.091344 -15.058163 33.256664 1.139880 0.651799 -29.520681 -11.424937 4.764243 
-2.773334 49.899845 -19.262272 -14.144882 5.141910 33.266750 38.799419 6.155491 5.380649 3.954839 2.988140 0.889442 1.640818 -0.327405 -0.009780 14.070595 5.103261 -40.899418 -2.449791 -0.012286 0.001701 -29.904484 -32.379925 -1.355173 -60.261593 0.878927 -1.395023 -25.166632 -5.526947 32.858929 6.781407 -3.665597 0.182567 41.190659 32.043129 7.112381 61.235947 -5.000000 -19.339167 6.071175 -1.735971 -17.566761 -13.701239 20.898357 1.226699 18.413874 -8.165373 -3.147965 11.014706 -13.060844 -16.135757 15.986445 -3.886529 -15.446258 33.216274 0.925117 0.521897 -29.553846 -11.737657 4.895770 
-2.714534 49.890583 -19.274347 -14.199597 5.231278 33.821888 38.867432 6.346347 5.560089 3.964414 2.968610 0.889442 1.494478 -0.417228 -0.015958 13.895933 5.162349 -41.376228 -2.596278 -0.080554 -0.001816 -30.748884 -33.355717 -0.722784 -60.370335 1.569486 -1.781091 -24.964703 -5.738258 32.213402 6.771398 -3.587574 0.178528 40.263927 32.041485 6.625664 59.848885 -5.000000 -20.375874 6.128985 -1.874495 -17.014713 -13.905277 20.711433 0.744337 18.571898 -8.193140 -3.217875 10.928268 -13.051519 -16.185265 16.186274 -3.681266 -15.833167 33.155457 0.714604 0.382631 -29.577841 -11.991062 5.026031 
-2.646723 49.895653 -19.270615 -14.265777 5.366982 34.253643 38.903400 6.485705 5.748466 4.026233 2.939278 0.997275 1.455713 -0.566446 -0.023035 13.825746 5.196305 -41.870659 -2.733010 -0.187833 -0.007343 -31.510269 -34.155972 -0.133938 -60.540169 1.915208 -1.963257 -24.692259 -6.048869 31.527884 6.830443 -3.537660 0.185682 39.333729 31.856647 6.046649 58.524475 -5.000000 -21.310440 6.207132 -2.174540 -16.850609 -13.939634 20.499950 0.308076 18.603914 -8.268703 -3.233347 10.891331 -12.950186 -16.174540 16.497032 -3.603224 -16.204103 32.992313 0.597464 0.322938 -29.554358 -12.167284 5.122215 
